<svg xmlns="http://www.w3.org/2000/svg" width="15" height="13" viewBox="0 0 15 13" fill="none">
<path fill-rule="evenodd" clip-rule="evenodd" d="M14.7821 11.071L8.59546 0.617921C8.36905 0.235516 7.95079 0 7.49815 0C7.0455 0 6.62724 0.235516 6.40083 0.617921L0.169674 11.1462C-0.056558 11.5286 -0.056558 11.9997 0.169674 12.3821C0.396087 12.7645 0.814345 13 1.26699 13H13.7295H13.7331C14.4328 13 15 12.4467 15 11.7642C14.9998 11.5073 14.9196 11.2686 14.7821 11.071ZM6.74999 10.3152C6.74999 10.0923 6.83391 9.90065 7.00177 9.74039C7.16963 9.58013 7.37141 9.5 7.60713 9.5C7.8357 9.5 8.0357 9.57664 8.20713 9.72994C8.37856 9.88323 8.46427 10.0714 8.46427 10.2943C8.46427 10.5173 8.38035 10.7089 8.21249 10.8692C8.04463 11.0294 7.84285 11.1096 7.60713 11.1096C7.49284 11.1096 7.38392 11.0886 7.28034 11.0468C7.17677 11.005 7.0857 10.9493 7.00713 10.8796C6.92856 10.8099 6.86606 10.7263 6.81963 10.6288C6.7732 10.5312 6.74999 10.4267 6.74999 10.3152ZM6.96427 8.50776H8.24999V3.70001H6.96427V8.50776Z" fill="#FA9E15"/>
</svg>